<svg width="706" height="128" viewBox="0 0 706 128" fill="none" xmlns="http://www.w3.org/2000/svg">
<path d="M3.00009 105H15.0001C15.0001 105 4.00009 103 4.00009 94C4.00009 85 15.0001 83 15.0001 83H3.00009L3.00009 105Z" fill="#282828"/>
<path d="M132 2.62269e-07L135 0V21H132V2.62269e-07Z" fill="#282828"/>
<path d="M30.0001 56H27.0001V35H30.0001V56Z" fill="#282828"/>
<path d="M112 39L24.0001 127H30.0001L118 39H112Z" fill="#282828"/>
<path d="M9.15527e-05 109L18.0001 127H30.0001L52 105H9.15527e-05V109Z" fill="#282828"/>
<path d="M135 65V61H96.0001V83H117L135 65Z" fill="#282828"/>
<path d="M96.0001 61V83H74L96.0001 61Z" fill="#282828"/>
<path d="M17 61H80V65L62.0001 83H0V79L17 61Z" fill="#282828"/>
<path d="M27.0001 35V39H118L135 22V17H45.0001L27.0001 35Z" fill="#282828"/>
<path d="M0 83L9.15527e-05 105H3.00009L3.00009 83H0Z" fill="#282828"/>
<path d="M74 83L63.0093 93.9908C69.0063 87.9943 75.0047 83 84.0001 83H74Z" fill="#282828"/>
<path d="M46 105L56.9947 94.0052C50.9959 100.003 43.9974 105 35 105H46Z" fill="#282828"/>
<path d="M77.0001 44H80.0001L80 65H77.0001V44Z" fill="#282828"/>
<path d="M77.0001 61V50C77.0001 50 75.0001 61 66.0001 61H77.0001Z" fill="#282828"/>
<path d="M132 17V6C132 6 130 17 121 17H132Z" fill="#282828"/>
<path d="M30.0001 39V50C30.0001 50 32.0001 39 41.0001 39H30.0001Z" fill="#282828"/>
<path d="M102 61C99.0001 61 98.0001 59 101 56L96.0001 61H102Z" fill="#282828"/>
<path d="M104 38.9988H112L106.003 44.9981C109.001 41.9982 108 38.9988 104 38.9988Z" fill="#282828"/>
<path d="M584 106H596C596 106 585 104 585 95C585 86 596 84 596 84H584V106Z" fill="#282828"/>
<path d="M703 65H706V111H703V65Z" fill="#282828"/>
<path d="M703 46H706V66H703V46Z" fill="#282828"/>
<path d="M581 36V40H675V36L658 18H599L581 36Z" fill="#282828"/>
<path d="M669 39.9974L603 106H609L675 39.9974H669Z" fill="#282828"/>
<path d="M581 110L599 128H689L706 111V106H581V110Z" fill="#282828"/>
<path d="M706 66V62H653V84H688L706 66Z" fill="#282828"/>
<path d="M653 84H631L653 62V84Z" fill="#282828"/>
<path d="M599 62H637V66L619 84H581V80L599 62Z" fill="#282828"/>
<path d="M581 84L581 106H584V84H581Z" fill="#282828"/>
<path d="M631 84L620.005 94.9948C626.004 88.9965 633.003 84 642 84H631Z" fill="#282828"/>
<path d="M634 45H637V66H634V45Z" fill="#282828"/>
<path d="M584 80H581V36L584 36V80Z" fill="#282828"/>
<path d="M634 62V51C634 51 632 62 623 62H634Z" fill="#282828"/>
<path d="M584 40V51C584 51 586 40 595 40H584Z" fill="#282828"/>
<path d="M703 106V95C703 95 701 106 692 106H703Z" fill="#282828"/>
<path d="M703 62V51C703 51 701 62 692 62L703 62Z" fill="#282828"/>
<path d="M659 62C656 62 655 60 658 57L653 62H659Z" fill="#282828"/>
<path d="M663 40C666 40 667 42 664 45L669 40H663Z" fill="#282828"/>
<path d="M703 69V77.5C703 77.5 703 75.1462 700.863 74.2588C698.727 73.3714 697 75 697 75L703 69Z" fill="#282828"/>
<path d="M584 77V68C584 68 584 70.4923 586.137 71.4319C588.273 72.3714 590 71 590 71L584 77Z" fill="#282828"/>
<path d="M584 0.999998L581 0.999998V23H584V0.999998Z" fill="#282828"/>
<path d="M584 18V7C584 7 586 18 595 18H584Z" fill="#282828"/>
<path d="M103 105H115C115 105 104 103 104 94C104 85 115 83 115 83H103V105Z" fill="#282828"/>
<path d="M232 0L235 2.62267e-07V22H232V0Z" fill="#282828"/>
<path d="M222 64H225V110H222V64Z" fill="#282828"/>
<path d="M222 45H225V65H222V45Z" fill="#282828"/>
<path d="M128 35V39H218L235 22V17H146L128 35Z" fill="#282828"/>
<path d="M212 39L124 127H130L218 39H212Z" fill="#282828"/>
<path d="M232 17V6C232 6 230 17 221 17L232 17Z" fill="#282828"/>
<path d="M100 109L118 127H208L225 110V105H100V109Z" fill="#282828"/>
<path d="M225 65V61H196V83H207L225 65Z" fill="#282828"/>
<path d="M196 83H174L196 61V83Z" fill="#282828"/>
<path d="M117 61H180V65L162 83H100V79L117 61Z" fill="#282828"/>
<path d="M100 83L100 105H103V83H100Z" fill="#282828"/>
<path d="M173 83L163 94C169 87.9994 175 83 184 83H173Z" fill="#282828"/>
<path d="M177 44H180L180 65H177V44Z" fill="#282828"/>
<path d="M131 56H128V35H131V56Z" fill="#282828"/>
<path d="M177 61V50C177 50 175 61 166 61H177Z" fill="#282828"/>
<path d="M131 39V50C131 50 133 39 142 39H131Z" fill="#282828"/>
<path d="M222 105V94C222 94 220 105 211 105H222Z" fill="#282828"/>
<path d="M222 61V50C222 50 220 61 211 61H222Z" fill="#282828"/>
<path d="M202 61C199 61 198 59 201 56L196 61H202Z" fill="#282828"/>
<path d="M222 68L222 76.5C222 76.5 222 74.1462 219.863 73.2588C217.727 72.3714 216 74 216 74L222 68Z" fill="#282828"/>
<path d="M453 105H465C465 105 454 103 454 94C454 85 465 83 465 83H453V105Z" fill="#282828"/>
<path d="M572 64H575V110H572V64Z" fill="#282828"/>
<path d="M572 45H575V65H572V45Z" fill="#282828"/>
<path d="M448 21L466 39H568V35L551 17H448V21Z" fill="#282828"/>
<path d="M562 39L474 127H480L568 39H562Z" fill="#282828"/>
<path d="M450 109L468 127H558L575 110V105H450V109Z" fill="#282828"/>
<path d="M575 65V61H546V83H557L575 65Z" fill="#282828"/>
<path d="M546 83H524L546 61V83Z" fill="#282828"/>
<path d="M467 61H530V65L512 83H450V79L467 61Z" fill="#282828"/>
<path d="M450 83L450 105H453V83H450Z" fill="#282828"/>
<path d="M523 83L513 94C519 87.9994 525 83 534 83H523Z" fill="#282828"/>
<path d="M527 44H530L530 65H527V44Z" fill="#282828"/>
<path d="M451 2.38488e-08H448V21H451V2.38488e-08Z" fill="#282828"/>
<path d="M527 61V50C527 50 525 61 516 61H527Z" fill="#282828"/>
<path d="M451 17V6C451 6 453 17 462 17H451Z" fill="#282828"/>
<path d="M572 105V94C572 94 570 105 561 105H572Z" fill="#282828"/>
<path d="M572 61V50C572 50 570 61 561 61H572Z" fill="#282828"/>
<path d="M552 61C549 61 548 59 551 56L546 61H552Z" fill="#282828"/>
<path d="M572 68V76.5C572 76.5 572 74.1462 569.863 73.2588C567.727 72.3714 566 74 566 74L572 68Z" fill="#282828"/>
<path d="M385 109L367 127H372L387.5 111.5L385 109Z" fill="#282828"/>
<path d="M288 61L286 63L350 127H372L376.5 122.5L315 61H288Z" fill="#282828"/>
<path d="M255 39L250 34V39H255Z" fill="#282828"/>
<path d="M233 124V127H254V124H233Z" fill="#282828"/>
<path d="M267 17L250 34V17H267Z" fill="#282828"/>
<path d="M253 39H250V81H253V39Z" fill="#282828"/>
<path d="M272 83L294 61H288L266 83H272Z" fill="#282828"/>
<path d="M250 81H272V110L255 127H250V81Z" fill="#282828"/>
<path d="M250 124H239C239 124 250 122 250 113V124Z" fill="#282828"/>
<path d="M253 81V70C253 70 255 81 264 81H253Z" fill="#282828"/>
<path d="M253 39H264C264 39 253 41 253 50V39Z" fill="#282828"/>
<path d="M309 17L298 17C298 17 309 15 309 6V17Z" fill="#282828"/>
<path d="M268 81L273 76C269.5 79.5 267.5 81 264 81H268Z" fill="#282828"/>
<path d="M281.999 73C282.003 72.9966 282.006 72.9932 282.01 72.9898C283.929 71.0703 288.999 66 288.999 66L295.999 73C292.503 69.5034 285.513 69.5 282.01 72.9898C281.167 73.8325 280.932 74.0678 281.999 73Z" fill="#282828"/>
<path d="M367 113C370.5 116.5 377.5 116.5 381 113L374 120L367 113Z" fill="#282828"/>
<path d="M309 2.62267e-07H312V21H309V2.62267e-07Z" fill="#282828"/>
<path d="M287 68L334 21H328L281 68H287Z" fill="#282828"/>
<path d="M331 21H328L331 18V21Z" fill="#282828"/>
<path d="M312 21V17H267L250 34V39H294L312 21Z" fill="#282828"/>
<path d="M331 2.62267e-07H334V21H331V2.62267e-07Z" fill="#282828"/>
<path d="M331 18V6.99951C331 13.9995 329 19.9995 320 28.9995L331 18Z" fill="#282828"/>
<path d="M235 2.62267e-07L232 0L232 21H235L235 2.62267e-07Z" fill="#282828"/>
<path d="M235 17L235 6C235 6 237 17 246 17H235Z" fill="#282828"/>
<path d="M232 21L232 17L271 17L288 34V39H250L232 21Z" fill="#282828"/>
<path d="M250 39L239.009 28.0093C245.006 34.0062 250 40.0046 250 49L250 39Z" fill="#282828"/>
<path d="M349 109L367 127H436L453 110L453 105H349V109Z" fill="#282828"/>
<path d="M349 32L364 17H410.5L427.5 34V39H349V32Z" fill="#282828"/>
<path d="M334 2.62267e-07H331V21H334V2.62267e-07Z" fill="#282828"/>
<path d="M334 17V6C334 6 336 17 345 17L334 17Z" fill="#282828"/>
<path d="M331 21L331 17H370L387 34V39H349L331 21Z" fill="#282828"/>
<path d="M404 39L414.995 49.9948C408.996 43.9965 401.997 39 393 39H404Z" fill="#282828"/>
<path d="M450 71H453V110H450V71Z" fill="#282828"/>
<path d="M362 32H359V109H362V32Z" fill="#282828"/>
<path d="M450 105L450 94C450 94 448 105 439 105H450Z" fill="#282828"/>
<path d="M362 105C362 105 362 87.5001 362 94.0001C362 100.5 366 105 373 105H362Z" fill="#282828"/>
<path d="M362 39V50C362 43.4999 366 39 373 39L362 39Z" fill="#282828"/>
<path d="M359 39H349C355.5 39.0001 359 43 359 50V39Z" fill="#282828"/>
<path d="M331 21L331 17H370L387 34V39H359L343 33L331 21Z" fill="#282828"/>
<path d="M359 39H349C355.5 39.0001 359 43 359 50V39Z" fill="#282828"/>
<path d="M362 71.9995V60.9995C362 66.9995 369 71.9995 378 71.9995H362Z" fill="#282828"/>
<path d="M359 71.9995V60.9995C359 66.9995 352 71.9995 343 71.9995H359Z" fill="#282828"/>
<path d="M362 71.9995V83C362 77 369 71.9995 378 71.9995H362Z" fill="#282828"/>
<path d="M359 71.9995V83C359 77 352 71.9995 343 71.9995H359Z" fill="#282828"/>
<path d="M384 17L383 18L430 65L445 51.5L410.5 17H384Z" fill="#282828"/>
<path d="M453 71C453 63.5001 450 56.4999 445 51.5L430 65C443 78 450 81 450 94V71H453Z" fill="#282828"/>
<path d="M359 105L359 96C359 96 359 98.8538 356.863 99.7412C354.727 100.629 353 99 353 99L359 105Z" fill="#282828"/>
</svg>
